<svg width="26" height="25" viewBox="0 0 26 25" fill="none" xmlns="http://www.w3.org/2000/svg">
<path d="M13 21.53C14.52 21.53 15.95 21.15 17.29 20.39C18.59 19.69 19.66 18.72 20.5 17.48C20.48 16.72 20.01 16.02 19.09 15.38C18.29 14.84 17.27 14.4 16.03 14.06C14.91 13.76 13.89 13.61 12.97 13.61C12.07 13.61 11.06 13.76 9.94 14.06C8.7 14.4 7.69 14.84 6.91 15.38C5.99 16.02 5.52 16.72 5.5 17.48C6.34 18.72 7.41 19.69 8.71 20.39C10.07 21.15 11.5 21.53 13 21.53ZM13 3.77C12.34 3.77 11.72 3.94 11.14 4.28C10.56 4.62 10.1 5.08 9.76 5.66C9.42 6.24 9.25 6.86 9.25 7.52C9.25 8.18 9.42 8.8 9.76 9.38C10.1 9.96 10.56 10.42 11.14 10.76C11.72 11.1 12.34 11.27 13 11.27C13.66 11.27 14.28 11.1 14.86 10.76C15.44 10.42 15.9 9.96 16.24 9.38C16.58 8.8 16.75 8.18 16.75 7.52C16.75 6.86 16.58 6.24 16.24 5.66C15.9 5.08 15.44 4.62 14.86 4.28C14.28 3.94 13.66 3.77 13 3.77ZM13 0.019999C15.28 0.019999 17.39 0.589999 19.33 1.73C21.21 2.81 22.69 4.29 23.77 6.17C24.91 8.11 25.48 10.22 25.48 12.5C25.48 14.78 24.91 16.89 23.77 18.83C22.69 20.71 21.21 22.19 19.33 23.27C17.39 24.41 15.28 24.98 13 24.98C10.72 24.98 8.61 24.41 6.67 23.27C4.79 22.17 3.31 20.68 2.23 18.8C1.09 16.86 0.52 14.76 0.52 12.5C0.52 10.24 1.09 8.14 2.23 6.2C3.33 4.32 4.82 2.83 6.7 1.73C8.64 0.589999 10.74 0.019999 13 0.019999Z" fill="white"/>
</svg>
