<svg width="29" height="26" viewBox="0 0 29 26" fill="none" xmlns="http://www.w3.org/2000/svg">
<path d="M26.7857 11.2857H1.78571C0.795201 11.2857 0 12.0809 0 13.0714C0 14.0619 0.795201 14.8571 1.78571 14.8571H1.99498L3.59933 24.0926C3.75279 24.9436 4.49219 25.5714 5.35714 25.5714H23.2143C24.0792 25.5714 24.8186 24.9436 24.9721 24.0926L26.5765 14.8571H26.7857C27.7762 14.8571 28.5714 14.0619 28.5714 13.0714C28.5714 12.0809 27.7762 11.2857 26.7857 11.2857ZM6.76618 22.4464C6.73828 22.4464 6.72433 22.4464 6.69643 22.4464C6.23605 22.4464 5.84542 22.0837 5.80357 21.6233L5.35714 15.8198C5.31529 15.3315 5.69196 14.899 6.18025 14.8571C6.66853 14.8153 7.101 15.192 7.14286 15.6802L7.58929 21.4838C7.63114 21.9721 7.25446 22.4046 6.76618 22.4464ZM12.5 21.5536C12.5 22.0419 12.0954 22.4464 11.6071 22.4464C11.1189 22.4464 10.7143 22.0419 10.7143 21.5536V15.75C10.7143 15.2617 11.1189 14.8571 11.6071 14.8571C12.0954 14.8571 12.5 15.2617 12.5 15.75V21.5536ZM17.8571 21.5536C17.8571 22.0419 17.4526 22.4464 16.9643 22.4464C16.476 22.4464 16.0714 22.0419 16.0714 21.5536V15.75C16.0714 15.2617 16.476 14.8571 16.9643 14.8571C17.4526 14.8571 17.8571 15.2617 17.8571 15.75V21.5536ZM22.7679 21.6233C22.726 22.0837 22.3354 22.4464 21.875 22.4464C21.8471 22.4464 21.8331 22.4464 21.8052 22.4464C21.317 22.4046 20.9403 21.9721 20.9821 21.4838L21.4286 15.6802C21.4704 15.192 21.9029 14.8153 22.3912 14.8571C22.8795 14.899 23.2561 15.3315 23.2143 15.8198L22.7679 21.6233ZM6.64062 4.64509C6.83594 3.82199 7.54743 3.25 8.38449 3.25H10.7143C10.7143 3.73828 11.1189 4.14286 11.6071 4.14286H16.9643C17.4526 4.14286 17.8571 3.73828 17.8571 3.25H20.1869C21.024 3.25 21.7355 3.82199 21.9308 4.64509L23.2282 10.3929H25.0698L23.6607 4.24051C23.298 2.60826 21.861 1.46429 20.1869 1.46429H17.8571C17.8571 0.976004 17.4526 0.571427 16.9643 0.571427H11.6071C11.1189 0.571427 10.7143 0.976004 10.7143 1.46429H8.38449C6.71038 1.46429 5.27344 2.60826 4.91071 4.24051L3.50167 10.3929H5.34319L6.64062 4.64509Z" fill="white"/>
</svg>
