<svg width="17" height="17" viewBox="0 0 17 17" fill="none" xmlns="http://www.w3.org/2000/svg">
<path d="M16.3839 13.1339C16.3839 12.7991 16.25 12.4643 16.0089 12.2232L12.0714 8.28571L16.0089 4.34821C16.25 4.10714 16.3839 3.77232 16.3839 3.4375C16.3839 3.10268 16.25 2.76786 16.0089 2.52678L14.1875 0.705356C13.9464 0.464285 13.6116 0.330356 13.2768 0.330356C12.942 0.330356 12.6071 0.464285 12.3661 0.705356L8.42857 4.64286L4.49107 0.705356C4.25 0.464285 3.91518 0.330356 3.58036 0.330356C3.24554 0.330356 2.91071 0.464285 2.66964 0.705356L0.848214 2.52678C0.607143 2.76786 0.473214 3.10268 0.473214 3.4375C0.473214 3.77232 0.607143 4.10714 0.848214 4.34821L4.78571 8.28571L0.848214 12.2232C0.607143 12.4643 0.473214 12.7991 0.473214 13.1339C0.473214 13.4687 0.607143 13.8036 0.848214 14.0446L2.66964 15.8661C2.91071 16.1071 3.24554 16.2411 3.58036 16.2411C3.91518 16.2411 4.25 16.1071 4.49107 15.8661L8.42857 11.9286L12.3661 15.8661C12.6071 16.1071 12.942 16.2411 13.2768 16.2411C13.6116 16.2411 13.9464 16.1071 14.1875 15.8661L16.0089 14.0446C16.25 13.8036 16.3839 13.4687 16.3839 13.1339Z" fill="white"/>
</svg>
