<svg width="31" height="31" viewBox="0 0 31 31" fill="none" xmlns="http://www.w3.org/2000/svg">
<path fill-rule="evenodd" clip-rule="evenodd" d="M29.2892 31H21.3895V18.995H25.4191L26.0229 14.317H21.3895V11.3295C21.3895 9.97502 21.7661 9.05208 23.7083 9.05208L26.1859 9.05124V4.86634C25.7569 4.80976 24.2868 4.68226 22.5759 4.68226C19.004 4.68226 16.5585 6.86252 16.5585 10.8667V14.317H12.5187V18.995H16.5585V31H1.71082C0.765901 31 0 30.2333 0 29.2884V1.71162C0 0.76588 0.765901 0 1.71082 0H29.2892C30.2341 0 31 0.76588 31 1.71162V29.2884C31 30.2333 30.2341 31 29.2892 31Z" fill="white"/>
</svg>
