<svg width="31" height="31" viewBox="0 0 31 31" fill="none" xmlns="http://www.w3.org/2000/svg">
<path fill-rule="evenodd" clip-rule="evenodd" d="M30.2734 0.686198C29.7891 0.22873 29.1971 0 28.4974 0H2.66406C1.91059 0 1.27821 0.22873 0.766927 0.686198C0.25564 1.14367 0 1.72222 0 2.42188V28.3359C0 29.0356 0.269095 29.6545 0.807292 30.1927C1.34549 30.7309 1.96441 31 2.66406 31H28.4974C29.1971 31 29.7891 30.7309 30.2734 30.1927C30.7578 29.6545 31 29.0356 31 28.3359V2.42188C31 1.72222 30.7578 1.14367 30.2734 0.686198ZM9 12V26H5V12H9ZM5.67797 9.32203C6.12995 9.77401 6.72316 10 7.45763 10C8.19209 10 8.79943 9.75989 9.27966 9.27966C9.75989 8.79943 10 8.22034 10 7.54237C10 6.80791 9.77401 6.20057 9.32203 5.72034C8.87005 5.24011 8.27684 5 7.54237 5C6.80791 5 6.20057 5.24011 5.72034 5.72034C5.24011 6.20057 5 6.80791 5 7.54237C5 8.22034 5.22599 8.81356 5.67797 9.32203ZM26 18V26H21.4167V18.48C21.4167 16.5067 20.6389 15.52 19.0833 15.52C17.9722 15.52 17.1944 16.0533 16.75 17.12C16.6389 17.3333 16.5833 17.7067 16.5833 18.24V26H12V12.32H16.5833V14.24C17.6945 12.7467 19.0833 12 20.75 12C22.3056 12 23.5694 12.5067 24.5417 13.52C25.5139 14.5333 26 16.0267 26 18Z" fill="white"/>
</svg>
