<svg width="184" height="75" viewBox="0 0 184 75" fill="none" xmlns="http://www.w3.org/2000/svg">
<path fill-rule="evenodd" clip-rule="evenodd" d="M6.32022 3.84698C5.99759 4.1599 5.61044 4.47613 5.43983 4.93501C5.32281 5.25124 5.28891 5.6681 5.28891 6.1137C5.28781 6.68536 5.3425 7.30235 5.3425 7.80434V14.0351C5.29766 14.034 5.25391 14.034 5.21017 14.0328C5.14127 14.0306 5.07455 14.0295 5.00784 14.0284C4.94769 14.0273 4.88863 14.0262 4.83067 14.0251C4.70381 14.0251 4.58241 14.024 4.4632 14.024H4.45227H4.43586C2.42026 14.0251 1.20959 14.265 0.436383 15.656C0.409042 15.708 0.379513 15.76 0.352172 15.8153C0.214372 16.0906 -0.00217086 16.5937 1.64421e-05 17.1355C1.64421e-05 17.287 0.0175148 17.4418 0.0601672 17.5966C0.134535 17.8763 0.371857 18.417 0.547935 18.6835C0.936181 19.2662 1.65143 19.3513 2.21028 19.7715C2.49135 19.7693 2.80851 19.7538 3.13551 19.7406C3.40455 19.7284 3.68234 19.7184 3.95247 19.7184H4.01043H4.05746C4.51898 19.7184 4.95316 19.7516 5.28781 19.8533C5.30641 19.86 5.325 19.8644 5.3425 19.871V31.4424C5.3425 32.3778 5.29547 33.3917 5.29547 34.3703C5.29547 35.5169 5.3589 36.6149 5.6356 37.4763C6.50505 40.1996 8.23848 42.0053 10.7222 43.1143C10.7637 43.132 10.8064 43.1508 10.8479 43.1696C10.8698 43.1796 10.8917 43.1895 10.9136 43.1995C10.954 43.2149 10.9923 43.2337 11.0339 43.2503C11.0404 43.2536 11.0459 43.257 11.0524 43.2592C12.087 43.6992 13.0691 43.9978 14.3946 44H14.4187H14.4384C14.8015 43.9989 15.1919 43.9779 15.6141 43.9303C15.6261 43.9281 15.637 43.927 15.6491 43.9259C15.6753 43.9226 15.7005 43.9193 15.7267 43.9171C15.753 43.9127 15.7814 43.9093 15.8098 43.906C15.8733 43.8994 15.9389 43.895 16.0045 43.8939H16.0187C16.0231 43.8939 16.0296 43.8939 16.0351 43.895C16.0581 43.895 16.081 43.895 16.104 43.8961C16.1674 43.8983 16.2309 43.9005 16.2954 43.9049C16.3534 43.9071 16.4113 43.9093 16.4693 43.9115C16.4999 43.9126 16.5273 43.9138 16.5579 43.9138H16.5754C16.594 43.9138 16.6126 43.9138 16.6312 43.9126C16.6957 43.9115 16.7602 43.9071 16.8258 43.8994C16.9363 43.8861 17.0478 43.8607 17.1605 43.8142C17.1659 43.8131 17.1736 43.8109 17.1791 43.8076C18.1743 43.3952 18.9989 42.1977 19 40.9515C19 40.4451 18.8644 39.9287 18.5483 39.4555C17.1966 37.4243 12.9095 38.9292 11.701 37.2783C11.0874 36.4424 10.9999 35.0868 10.9999 33.6317C10.9999 33.0412 11.0153 32.4342 11.0153 31.8393V19.7715C11.6769 19.7848 12.3276 19.8146 12.9499 19.8368C13.3677 19.8511 13.7745 19.8611 14.165 19.8622H14.1868H14.2142C16.3184 19.86 17.9676 19.5294 18.5647 17.6839C18.5669 17.6806 18.568 17.6773 18.5691 17.6729C18.5789 17.6364 18.591 17.5999 18.603 17.5623C18.6041 17.5535 18.6074 17.5435 18.6107 17.5335C18.6238 17.4893 18.6347 17.444 18.6468 17.3987C18.673 17.2881 18.6839 17.1775 18.6839 17.0703C18.6807 16.6866 18.5297 16.3361 18.4499 16.1127C17.8145 14.2838 16.1653 13.9599 14.0742 13.9543H14.0239H14.0031C13.6455 13.9543 13.2747 13.9621 12.8942 13.9754C12.811 13.9787 12.7268 13.982 12.6415 13.9842C12.2905 13.9975 11.9296 14.0096 11.5643 14.0218C11.3827 14.0262 11.2001 14.0317 11.0153 14.0351V7.90275C11.0153 7.44609 11.0382 6.94852 11.0371 6.46864C11.0371 5.85386 10.9978 5.26672 10.8195 4.8366C10.463 3.96971 9.52352 3.31292 8.56986 3.05639C8.42659 3.01769 8.28332 3 8.14443 3C7.36684 3 6.6516 3.52522 6.32022 3.84698Z" fill="#1A92D0"/>
<path fill-rule="evenodd" clip-rule="evenodd" d="M170.992 3.38899C170.843 3.48045 170.715 3.57081 170.61 3.64353C170.011 4.05015 169.551 4.53611 169.338 5.31849V13.993C169.265 13.9919 169.193 13.9897 169.122 13.9886C169.021 13.9864 168.923 13.9842 168.824 13.9831C168.701 13.9831 168.578 13.982 168.46 13.982H168.448H168.434C166.513 13.9831 165.364 14.2101 164.535 15.4332C164.527 15.4442 164.52 15.4564 164.512 15.4674C164.49 15.5004 164.467 15.5346 164.446 15.571C164.259 15.8707 164.002 16.3897 164 16.9804C164 17.1324 164.016 17.2856 164.055 17.4432C164.073 17.5236 164.095 17.6007 164.118 17.6757C164.657 19.4289 166.113 19.7187 168.297 19.7242H168.352H168.363C168.505 19.7242 168.648 19.7231 168.797 19.7209C168.972 19.7187 169.152 19.7143 169.338 19.7099V31.2428C169.338 32.1872 169.289 33.2142 169.289 34.2081C169.288 35.3685 169.352 36.4814 169.63 37.3542C170.459 39.9459 172.011 41.3752 174.132 42.6766C174.162 42.6964 174.192 42.7129 174.222 42.7317C174.228 42.735 174.233 42.7372 174.237 42.7416C175.278 43.3399 177.318 43.9901 179.154 44H179.199H179.212C179.896 43.9989 180.551 43.9063 181.112 43.6893C181.134 43.6793 181.155 43.6716 181.176 43.6639C182.179 43.2518 183.002 42.0628 183 40.8198C182.999 40.3151 182.862 39.8005 182.546 39.3267C181.19 37.2969 176.907 38.8043 175.697 37.1569C175.087 36.325 174.998 34.9652 174.997 33.5172C174.997 32.9277 175.012 32.326 175.012 31.7365V19.7099C175.667 19.7231 176.309 19.7517 176.929 19.7727C177.345 19.7892 177.75 19.7991 178.141 19.7991H178.165H178.216C180.393 19.7947 182.102 19.4377 182.643 17.4432C182.678 17.3153 182.694 17.1831 182.695 17.052C182.698 16.5363 182.482 16.0327 182.349 15.7671C181.571 14.199 179.999 13.9147 178.024 13.9125H178.001H177.971C177.606 13.9125 177.226 13.9225 176.836 13.9357C176.701 13.9401 176.565 13.9456 176.428 13.95C175.967 13.9654 175.494 13.9831 175.012 13.993V7.88161C175.012 7.37912 175.064 6.76754 175.063 6.19784C175.063 5.75596 175.031 5.33943 174.914 5.02207C174.555 4.04023 173.624 3.33389 172.566 3.05179C172.43 3.01543 172.297 3 172.167 3C171.716 3 171.31 3.19504 170.992 3.38899Z" fill="#1A92D0"/>
<path fill-rule="evenodd" clip-rule="evenodd" d="M45.6528 3C45.5306 3 45.4084 3 45.2851 3.00109C45.2022 3.00109 45.1193 3.00328 45.0342 3.00437C44.3721 3.427 43.1197 3.18456 42.3027 3.39533C40.5638 3.84199 38.802 4.19363 37.2279 4.85979C29.8776 7.97438 24.6894 13.6717 22.104 21.5641C21.6491 22.9532 21.5596 24.5029 21.2247 25.9608V27.0354C21.0665 27.7354 21 28.5184 21 29.3342C20.9989 31.9966 21.7123 35.0075 22.2992 36.6095C22.7072 37.7213 22.9167 38.6954 23.3716 39.735C26.1577 46.0985 31.2488 50.386 37.7155 53.1184C39.9856 54.0761 43.8561 54.9945 47.4953 55H47.5378H47.5542C48.8916 55 50.1963 54.8755 51.3777 54.5839C54.4976 53.814 57.443 53.0408 59.868 51.5556C60.6905 51.0511 61.4749 50.3773 62.3072 49.8946V36.9994H62.2101C61.7836 38.3448 60.636 39.3015 59.868 40.3204C57.575 43.3684 54.3067 44.7815 50.0119 45.89C49.9519 45.9052 49.8897 45.9205 49.8254 45.9347C49.8014 45.9413 49.7763 45.9456 49.7512 45.9522C48.8981 46.14 47.7723 46.2503 46.6607 46.2514H46.6313H46.5866C45.7749 46.2492 44.9742 46.1881 44.2968 46.0603C44.239 46.0483 44.1833 46.0374 44.1277 46.0265C44.0906 46.0177 44.0524 46.0079 44.0143 45.9992C43.9968 45.9959 43.9794 45.9915 43.9619 45.9871C40.6773 45.1888 38.1693 43.91 35.8621 42.1769C32.4531 39.6182 29.823 34.278 29.8187 28.6746C29.8176 26.5243 30.2037 24.3347 31.0797 22.2488C33.2331 17.1303 37.4723 13.6728 43.1819 12.0893C43.2354 12.074 43.2899 12.0598 43.3445 12.0445C43.3805 12.0369 43.4165 12.0271 43.4536 12.0183C43.4841 12.0096 43.5168 12.0019 43.5495 11.9965C44.4768 11.7791 45.5251 11.683 46.5844 11.683H46.6029H46.6313C48.2185 11.6852 49.8265 11.9004 51.0919 12.2411C51.2097 12.2728 51.3253 12.3055 51.4377 12.3394C51.4442 12.3427 51.4519 12.3448 51.4584 12.347C51.4977 12.359 51.5359 12.37 51.573 12.382C57.0186 14.1238 60.8716 17.3258 62.9901 22.3471C63.7286 24.0955 63.8006 25.9913 64.2599 28.11V51.359C64.2653 51.3853 64.2708 51.4104 64.2784 51.4344C64.2806 51.4508 64.2861 51.465 64.2882 51.4803C64.8271 53.5399 66.5845 54.8657 68.5383 54.8875H68.5863H68.6081C69.5954 54.8821 70.6284 54.5446 71.5775 53.802C72.8669 52.794 72.9444 50.7977 72.9444 48.5349C72.9444 48.2106 72.9433 47.8819 72.9433 47.5499V33.5812C72.9433 32.1484 73 30.6545 73 29.2031C73.0011 27.4504 72.9182 25.7566 72.5527 24.2997C70.1321 14.6207 64.4322 7.01008 54.634 4.18599C54.5958 4.17507 54.5587 4.16524 54.5216 4.15432C54.5096 4.15104 54.4998 4.14886 54.4878 4.14449C51.8446 3.3997 48.9068 3 45.6549 3H45.6528Z" fill="#1A92D0"/>
<path fill-rule="evenodd" clip-rule="evenodd" d="M90.6487 13.0011C90.593 13.0022 90.5372 13.0033 90.4803 13.0033C89.7152 13.1356 88.9512 13.2689 88.186 13.4011C86.5665 13.8834 83.9666 14.8101 83.0977 15.9857C82.7876 15.7723 82.8746 15.2323 82.6973 14.8923C82.4106 14.3345 81.708 13.63 81.1023 13.4011C81.0811 13.3933 81.0611 13.3867 81.0399 13.38C81.0387 13.3789 81.0365 13.3778 81.0343 13.3767C80.7075 13.2611 80.3885 13.21 80.0829 13.2089H80.074H80.0572C78.6931 13.2167 77.6012 14.2345 77.2342 15.1323C77.2287 15.1423 77.2253 15.1512 77.222 15.1601C77.2197 15.1712 77.2142 15.1812 77.2108 15.1901C77.0491 15.6212 77 16.4568 77 17.3968C77 18.8169 77.1104 20.478 77.1104 21.3536V35.3675C77.1104 36.6342 77.019 37.9364 77.0178 39.1354C77.0178 41.4632 77.3636 43.3989 79.4058 43.9156C79.6278 43.9711 79.8431 43.9989 80.0505 44H80.0606C80.0717 44 80.0806 44 80.0918 43.9989C81.4314 43.9822 82.4664 42.9233 82.7977 42.1266C83.0419 41.541 83.11 40.571 83.11 39.5154C83.1111 38.1598 82.9984 36.6631 82.9984 35.6664C82.9984 34.7863 82.9918 33.9163 82.9918 33.0641C82.9918 28.7195 83.1457 24.8138 84.9927 22.247C86.5241 20.1225 88.4292 19.7125 91.4775 19.0669C91.773 19.0035 92.072 18.9769 92.3698 18.9758H92.3887H92.4099C93.1974 18.9791 93.987 19.1636 94.7499 19.3669C94.8392 19.3902 94.9284 19.4147 95.0176 19.438C95.0377 19.4447 95.06 19.4491 95.0812 19.4569C95.0946 19.4602 95.1091 19.4636 95.1225 19.4658C95.1994 19.488 95.2764 19.5091 95.3511 19.5291C96.056 19.7191 96.7308 19.888 97.3543 19.9014H97.4235H97.4603C98.2076 19.8925 98.8768 19.6436 99.4289 18.9091C99.4389 18.8969 99.449 18.8813 99.4601 18.868C99.8282 18.3624 100.002 17.7091 100 17.0601C99.9977 16.2234 99.7055 15.3945 99.1601 14.8923C97.8261 13.6634 93.7004 13 90.8239 13C90.7647 13 90.7067 13.0011 90.6487 13.0011Z" fill="#1A92D0"/>
<path fill-rule="evenodd" clip-rule="evenodd" d="M115.188 13.0209C115.179 13.0264 115.17 13.0297 115.161 13.0352C114.968 13.1297 114.714 13.1571 114.442 13.1637C114.41 13.1648 114.379 13.1648 114.348 13.1648H114.321C114.269 13.1648 114.217 13.1637 114.164 13.1615C114.085 13.1593 114.005 13.1571 113.927 13.1538C113.856 13.1516 113.786 13.1483 113.715 13.1483C113.663 13.1472 113.61 13.1461 113.558 13.145H113.507H113.468C113.391 13.1461 113.316 13.1483 113.242 13.1527C113.218 13.1538 113.192 13.156 113.166 13.1582C113.085 13.1659 113.007 13.178 112.935 13.1956C111.963 13.4241 110.856 13.6076 109.946 13.9823C104.942 16.0414 101.761 19.8167 100.284 25.383C100.081 26.1455 99.9979 26.9927 100 27.8519C100.005 29.7462 100.419 31.702 100.881 32.9512C102.804 38.1363 106.136 41.4545 111.641 43.0752C111.679 43.0862 111.715 43.0972 111.751 43.107C112.806 43.4048 113.919 43.5312 115.032 43.5334H115.05H115.083C117.812 43.5279 120.531 42.7653 122.327 41.883C122.385 41.8545 122.442 41.8259 122.499 41.7973C123.325 41.3743 124.342 41.015 124.888 40.3228H125.088C125.09 40.5678 125.092 40.8085 125.092 41.0458C125.092 42.1896 125.043 43.2356 124.69 44.0575C124.675 44.0937 124.659 44.1289 124.643 44.1641C123.234 47.2988 119.536 49.2821 115.678 49.292C115.668 49.292 115.658 49.2931 115.646 49.2931C115.642 49.2931 115.635 49.292 115.629 49.292C113.787 49.2898 111.908 48.836 110.225 47.8416C110.199 47.8262 110.172 47.8075 110.146 47.7933C109.008 47.1054 107.728 46.0979 106.959 45.0409C106.334 44.1827 105.979 43.051 105.066 42.4852C105.05 42.4764 105.036 42.4665 105.021 42.4566C104.594 42.205 104.145 42.094 103.704 42.0929H103.693H103.677C102.353 42.1006 101.1 43.0807 100.723 44.13C100.708 44.1706 100.695 44.2113 100.682 44.2542C100.614 44.4893 100.583 44.731 100.581 44.9738C100.575 47.1252 102.998 49.4897 103.87 50.349C103.926 50.4039 103.981 50.4577 104.041 50.5116C104.063 50.5325 104.083 50.5522 104.105 50.5731C106.172 52.4685 110.667 54.9582 115.083 55H115.192H115.201C115.947 55 116.69 54.9286 117.417 54.7715C118.049 54.7055 118.679 54.6396 119.31 54.5748C121.839 53.8672 124.106 52.708 125.985 51.3302C128.578 49.4315 130.007 46.522 130.866 42.8785V29.4121C130.96 28.9584 131.001 28.4804 131 27.9881C130.994 25.9653 130.277 23.7513 129.67 22.3361C127.414 17.0764 122.715 13.0429 115.227 13C115.213 13.0077 115.201 13.0143 115.188 13.0209ZM112.385 37.467C112.22 37.4093 112.068 37.3526 111.931 37.3003C109.109 36.2202 106.002 33.0877 106 29.0354C106 28.2158 106.127 27.3613 106.406 26.4785C107.183 24.0283 108.926 21.8082 111.156 20.824C111.885 20.5014 112.99 20.4905 113.676 20.0436C113.972 20.0414 114.285 20.0294 114.6 20.0185C114.869 20.0098 115.141 20 115.409 20H115.435H115.484C115.985 20.0022 116.464 20.036 116.874 20.1417C120.641 21.1292 124.007 24.5602 124 28.9395C123.998 30.1373 123.743 31.4082 123.174 32.7183C121.968 35.4986 119.46 37.1346 116.196 37.8845C115.845 37.9673 115.488 38 115.131 38C114.116 38 113.122 37.7243 112.385 37.467Z" fill="#1A92D0"/>
<path fill-rule="evenodd" clip-rule="evenodd" d="M146.144 14H145.937C145.89 14 145.838 14 145.79 14.0011C145.254 14.3321 143.246 14.3958 142.522 14.6894C140.326 15.5778 138.525 16.8203 136.775 18.1321C134.437 19.8826 132.002 24.6095 132 29.2936C131.999 30.3733 132.126 31.4531 132.416 32.4922C133.386 35.9799 135.244 39.184 137.864 41.0488C140.237 42.7388 142.916 44 146.979 44C147.771 43.967 148.563 43.934 149.357 43.9021C150.68 43.5833 152.007 43.1874 153.121 42.7212C154.599 42.1044 156.432 41.5832 156.886 39.968C156.964 39.6898 157 39.4292 157.002 39.1829C157.009 37.5776 155.521 36.6407 154.31 36.4263C154.215 36.4087 154.122 36.401 154.03 36.401H154.025C154.011 36.401 153.999 36.401 153.987 36.4021C153.381 36.4142 152.868 36.7617 152.448 37.0267C152.337 37.0971 152.231 37.1619 152.131 37.2136C151.24 37.6721 150.134 37.9536 149.058 38.1955C148.568 38.3077 148.052 38.3593 147.527 38.3604H147.514H147.44C144.53 38.3329 141.323 36.7881 140.057 35.4016C140.051 35.395 140.045 35.3884 140.039 35.3818C140.003 35.3422 139.971 35.3048 139.939 35.2652C139.906 35.2256 139.875 35.186 139.846 35.1476C139.334 34.4647 139.047 33.5048 138.458 32.8847V32.6901H155.698C156.132 32.6901 156.608 32.7055 157.098 32.722C157.582 32.7374 158.079 32.7528 158.568 32.7538H158.591H158.625C160.047 32.7506 161.373 32.612 161.993 31.9534C162.008 31.9358 162.022 31.9193 162.038 31.9028C162.738 31.0803 163.002 29.8994 163 28.6361C162.997 26.6371 162.321 24.4369 161.641 23.1482C160.893 21.7331 160.056 20.4345 159.076 19.2877C159.055 19.2646 159.034 19.2393 159.013 19.2151C159.013 19.2129 159.011 19.2107 159.01 19.2107C157.203 17.1238 154.924 15.5515 151.859 14.7037C150.201 14.2452 148.314 14 146.148 14H146.144ZM145.451 20.0948C145.728 20.0276 146.021 20 146.322 20H146.336H146.358C147.113 20.0033 147.897 20.1754 148.512 20.343C148.647 20.3783 148.773 20.4147 148.888 20.4478C148.897 20.45 148.904 20.4533 148.913 20.4544C148.954 20.4665 148.994 20.4775 149.033 20.4897C151.822 21.3047 153.513 22.3613 154.935 24.534C155.391 25.2299 155.955 25.8773 156 27H138C138.236 23.7277 142.486 20.8073 145.451 20.0948Z" fill="#1A92D0"/>
<path fill-rule="evenodd" clip-rule="evenodd" d="M43.2954 20.7069C41.157 21.6341 39.4575 23.5697 38.5639 25.7572C38.1711 26.7194 38.0011 27.7244 38 28.7171C37.9966 31.7606 39.5858 34.6957 41.2819 35.9605C42.0574 36.5398 42.8306 36.865 43.7985 37.2739C43.8188 37.2829 43.8379 37.2919 43.8593 37.2998C43.892 37.3134 43.9268 37.3269 43.9629 37.3427C44.0338 37.3698 44.1092 37.3981 44.1868 37.4274C44.9342 37.7041 46.0022 37.9944 47.076 38H47.1064H47.1176C47.4541 38 47.7895 37.9718 48.1159 37.9051C48.1542 37.8961 48.1913 37.8893 48.2285 37.8803C51.65 37.0898 54.0326 35.2761 55.2763 32.3241C55.7749 31.1406 55.9977 30 56 28.9181C56.009 24.4641 52.2724 21.0503 48.6314 20.1016C47.7591 20.0678 46.8869 20.0327 46.0135 20C45.399 20.3828 43.9955 20.4032 43.2954 20.7069Z" fill="#E83F3E"/>
<path fill-rule="evenodd" clip-rule="evenodd" d="M7.20176 57.113C6.76732 57.3025 6.6682 58.1141 6.6682 58.9759C6.66715 59.5877 6.71565 60.2246 6.73042 60.6869H5.50406C5.39651 60.8068 5.26364 60.9061 5.12656 60.9917C5.06646 61.2634 5.00213 61.4871 5.00002 61.6891C4.99897 61.8375 5.03271 61.9756 5.12656 62.1149C5.13605 62.1457 5.14449 62.1708 5.15609 62.1993C5.30477 62.56 5.62427 62.7004 6.00072 62.7084C6.01548 62.7096 6.02708 62.7096 6.04079 62.7096H6.07664C6.25485 62.705 6.44571 62.6742 6.63446 62.6263C6.7515 63.0246 6.79157 63.4823 6.79157 63.9698C6.79157 65.0404 6.59755 66.2595 6.59544 67.3485C6.59544 67.8142 6.63024 68.2536 6.73042 68.6497C7.16802 70.3848 8.25729 70.9943 10.3504 71H10.3747C10.4169 71 10.4601 71 10.5023 70.9989C10.6098 70.8767 10.7427 70.7797 10.8798 70.6918C10.9631 70.3254 11.001 70.0423 11 69.8254C10.9979 68.6543 9.90754 69.3883 9.08822 68.8541C8.57047 68.6246 8.4587 66.9935 8.4587 65.408C8.45975 64.3567 8.50931 63.3237 8.52197 62.729C8.53778 62.729 8.55255 62.729 8.56836 62.7301C8.67486 62.7336 8.78769 62.7381 8.90369 62.7438C9.01124 62.7461 9.12302 62.7518 9.23374 62.753H9.30966H9.32864C9.71985 62.7518 10.09 62.7119 10.2882 62.5464C10.2977 62.5406 10.3051 62.5327 10.3135 62.5235C10.594 62.4037 10.5792 62.285 10.7859 62.1149C10.7817 61.3935 10.6383 61.2063 10.4084 60.7874C10.401 60.7862 10.3947 60.7851 10.3873 60.7828C10.0077 60.704 9.50157 60.6835 9.00281 60.6823H8.95325H8.93532C8.86783 60.6823 8.8014 60.6823 8.73602 60.6835C8.66327 60.6846 8.59156 60.6858 8.52197 60.6869C8.52513 60.187 8.55255 59.6014 8.5536 59.0352C8.5536 58.3298 8.51353 57.6541 8.33321 57.2146C8.1529 57.129 7.85238 57 7.57399 57C7.43902 57 7.30827 57.0308 7.20176 57.113Z" fill="#E83F3E"/>
<path fill-rule="evenodd" clip-rule="evenodd" d="M158.643 59.434C158.661 59.8407 158.691 60.2633 158.705 60.6802C158.701 60.6802 158.696 60.6802 158.69 60.679C158.629 60.6768 158.56 60.6733 158.49 60.671C158.383 60.6653 158.27 60.6608 158.158 60.6608H158.14H158.114C157.883 60.6619 157.663 60.6813 157.524 60.7521C157.506 60.7613 157.49 60.7704 157.476 60.7807C157.381 60.815 157.286 60.8492 157.192 60.8824C157.143 61.1005 157.107 61.2524 157.002 61.3941C157.001 61.4295 157 61.4649 157 61.4969C156.999 62.1776 157.17 62.4677 157.666 62.6208C157.685 62.6356 157.708 62.6505 157.736 62.6619C157.82 62.7019 157.931 62.7236 158.047 62.7282H158.094H158.109C158.24 62.727 158.372 62.703 158.464 62.6551C158.483 62.6436 158.501 62.6322 158.517 62.6208H158.705C158.643 67.3141 157.858 70.992 162.345 71H162.357H162.36C162.403 71 162.447 71 162.493 70.9989C162.813 70.6436 162.996 70.3489 163 69.9834C163.003 69.7504 162.931 69.4854 162.777 69.1588C162.49 69.0879 162.075 69.0377 161.925 68.9555H161.885H161.851H161.847H161.831C161.177 68.9532 161.067 68.815 160.694 68.5454C160.596 67.6476 160.572 66.6345 160.572 65.6042C160.573 64.6345 160.595 63.6476 160.6 62.7236C160.758 62.7259 160.9 62.727 161.029 62.7282C161.075 62.7282 161.119 62.7293 161.16 62.7293H161.175H161.202C161.99 62.727 162.222 62.6356 162.771 62.02C162.772 62.02 162.772 62.0188 162.773 62.0177C162.781 62.0097 162.79 61.9983 162.799 61.988C162.809 61.9766 162.819 61.9652 162.828 61.9549C162.843 61.9389 162.857 61.9206 162.872 61.9058C162.765 60.8538 162.219 60.663 161.283 60.6608H161.262H161.242C161.044 60.6608 160.831 60.6699 160.6 60.6802V57.6145C160.459 57.4729 160.323 57.2833 160.221 57.1039C160.058 57.0366 160.127 57.0834 160.031 57.0011C160.01 57 159.988 57 159.967 57C158.673 57 158.585 58.1216 158.643 59.434Z" fill="#E83F3E"/>
<path fill-rule="evenodd" clip-rule="evenodd" d="M140 59.9292C139.998 60.1427 140.097 60.4281 140.27 60.9112C140.501 60.9697 140.715 60.9989 140.91 61H140.927H140.951C141.943 60.9888 142.372 60.2494 141.612 59.2022C141.294 59.1281 141.148 59.0416 140.786 59C140.233 59.4416 140.002 59.6056 140 59.9292Z" fill="#E83F3E"/>
<path fill-rule="evenodd" clip-rule="evenodd" d="M52 59.761C52.0089 60.1283 52.0335 60.3273 52.1999 60.5242C52.3752 60.7712 52.5673 60.8159 52.7984 61C53.426 60.9223 53.6125 60.6956 53.9966 60.4295C53.9989 60.356 54 60.2815 54 60.2081C54 59.9899 53.9821 59.7877 53.8973 59.6674C53.7465 59.2342 53.3981 59.0894 52.8989 59C52.4221 59.3417 52.3853 59.3321 52 59.761Z" fill="#E83F3E"/>
<path fill-rule="evenodd" clip-rule="evenodd" d="M35 59.6674C35.0055 60.2581 35.1154 60.4444 35.2958 60.8105C35.5157 60.8701 35.5563 60.8797 35.6894 61C36.3172 60.9862 36.9967 60.554 37 60.0176C37 59.843 36.9307 59.661 36.7713 59.4768C36.5558 59.198 36.249 59.0447 35.7872 59C35.5124 59.232 35.2606 59.4332 35 59.6674Z" fill="#E83F3E"/>
<path fill-rule="evenodd" clip-rule="evenodd" d="M44.2416 61.1147C43.4849 61.2975 42.8296 61.6587 42.181 61.8405C42.0918 61.8653 42.0038 61.887 41.9146 61.9043C41.9124 61.8794 41.9102 61.8567 41.9068 61.8329C41.8979 61.7723 41.8845 61.7171 41.8645 61.662C41.7374 61.3039 41.3841 61.0627 41.0275 61.053H41.0075C40.9907 61.053 40.9751 61.0541 40.9595 61.0541C40.818 61.0627 40.6776 61.1092 40.5539 61.2001C40.5483 61.2044 40.5416 61.2088 40.5372 61.2131C40.5305 61.2185 40.526 61.2217 40.5182 61.2282C40.0769 61.4056 40.0033 61.8924 40.0033 62.4602C40.0022 62.748 40.0189 63.0562 40.0189 63.3559V68.5803C40.0189 68.868 40 69.2055 40 69.5268C40 69.9703 40.0379 70.3856 40.2195 70.6128C40.399 70.8659 40.6308 70.9643 40.8826 70.973C40.8938 70.974 40.9072 70.974 40.9194 70.974C40.9361 70.974 40.9551 70.973 40.974 70.9719C41.1936 70.9621 41.4254 70.8886 41.6416 70.7923C41.6538 70.7869 41.665 70.7826 41.6761 70.7772C41.7229 70.7545 41.7686 70.7328 41.8143 70.709C41.9013 70.311 41.9247 69.7777 41.9247 69.1882C41.9247 68.4667 41.889 67.662 41.8901 66.92C41.8912 66.1109 41.9347 65.3764 42.113 64.9048C42.1241 64.8767 42.1353 64.8486 42.1464 64.8215C42.5733 63.8242 43.7746 63.0216 45.054 63.0087H45.0852H45.112C45.6391 63.0141 46.1763 63.1536 46.6767 63.4684C46.7179 63.4932 46.7591 63.5214 46.7993 63.5495C47.2685 63.8761 47.7153 64.6019 47.8959 65.1936C47.9761 65.4597 47.8903 65.702 47.9951 65.8707V70.5154C48.1957 70.6777 48.394 70.8388 48.5935 71C49.2121 70.9946 49.4071 70.8864 49.7905 70.709C49.9677 70.2753 50.0011 69.6414 50 68.9881C50 68.6214 49.9899 68.2493 49.9899 67.9021C49.9899 64.0081 49.1786 61.9746 46.1016 61.1309C45.7651 61.0389 45.4486 61 45.151 61C44.83 61 44.5302 61.0443 44.2416 61.1147Z" fill="#E83F3E"/>
<path fill-rule="evenodd" clip-rule="evenodd" d="M133.575 61C133.52 61.0011 133.465 61.0011 133.411 61.0032C133.105 61.1926 132.671 61.1474 132.306 61.2916C131.487 61.6198 130.503 62.2782 130.001 62.9281C129.309 63.8233 129.002 64.8563 129 65.872C128.996 67.5386 129.813 69.1601 131.104 70.051C131.628 70.4114 132.443 70.7536 133.11 70.9172C133.126 70.9215 133.143 70.9247 133.158 70.9279C133.381 70.9774 133.622 71 133.875 71H133.876C133.94 71 134.006 70.9989 134.072 70.9957C135.705 70.9225 137.672 69.9768 137.922 69.2806C137.956 69.1892 137.97 69.0988 137.971 69.0138C137.975 68.6404 137.725 68.3295 137.622 68.1261C137.592 68.1196 137.562 68.1164 137.532 68.111H137.525C137.392 68.0938 137.268 68.0852 137.156 68.0841H137.147H137.105C136.372 68.0981 136.041 68.465 135.499 68.7383C135.481 68.7469 135.464 68.7545 135.448 68.7631C135.443 68.7652 135.436 68.7685 135.431 68.7717C135.37 68.7997 135.305 68.8266 135.237 68.8535C135.197 68.8674 135.157 68.8814 135.115 68.8954C135.103 68.8997 135.091 68.9029 135.077 68.9073C134.759 69.0041 134.45 69.0493 134.149 69.0504H134.14H134.103C132.611 69.0331 131.419 67.926 131.046 66.8995C131.031 66.8586 131.016 66.8177 131.004 66.7779C130.947 66.5896 130.924 66.4121 130.926 66.2464C130.929 65.9042 131.024 65.604 131.104 65.3351C131.113 65.3039 131.123 65.2726 131.133 65.2414C131.604 63.7695 132.846 62.9314 134.189 62.926H134.205H134.225C135.008 62.9303 135.823 63.2165 136.538 63.8244C136.538 63.8244 136.539 63.8244 136.54 63.8255C136.6 63.8771 136.66 63.9309 136.719 63.9869C136.734 63.9879 136.749 63.9879 136.764 63.9879C136.783 63.9879 136.8 63.9879 136.817 63.9869C137.546 63.96 138.369 63.3628 137.822 62.6387C137.663 62.1986 137.196 61.8371 136.578 61.567C135.734 61.198 134.613 61 133.632 61H133.575Z" fill="#E83F3E"/>
<path fill-rule="evenodd" clip-rule="evenodd" d="M140.633 61.0022C140.51 61.1465 140.343 61.2854 140.187 61.3895C140.043 62.1784 140.001 63.0736 140 64.0035C140 65.4043 140.097 66.8843 140.097 68.1853C140.097 68.5434 140.067 68.9991 140.067 69.4277C140.068 69.9171 140.108 70.3728 140.277 70.6115C140.394 70.7396 140.514 70.8709 140.633 71C141.187 70.9946 141.363 70.8861 141.705 70.7081C141.935 70.0831 142.001 69.0566 142 67.9379C142 66.4536 141.884 64.8086 141.884 63.7203C141.884 63.3828 141.91 62.9629 141.911 62.5636C141.912 62.0818 141.875 61.6304 141.705 61.3895C141.498 61.0966 141.23 61 140.765 61C140.723 61 140.679 61 140.633 61.0022Z" fill="#E83F3E"/>
<path fill-rule="evenodd" clip-rule="evenodd" d="M16.9517 61.0752C16.3381 61.1798 15.8106 61.4 15.5021 61.7814C15.4823 61.777 15.4637 61.7716 15.4462 61.7672C15.4078 61.7552 15.3729 61.7432 15.3403 61.7302C14.7406 61.4959 15.048 61.0076 13.6544 61.0022H13.6369H13.6264C13.1246 61.7269 13.0012 63.0074 13 64.3827C12.9988 65.6741 13.106 67.0473 13.106 68.1186V68.282C13.106 69.3827 13.1141 70.2938 13.5228 70.9455C13.5379 70.9488 13.5507 70.951 13.567 70.9531C13.6776 70.9738 13.7813 70.9869 13.8767 70.9946C13.9291 70.9978 13.978 71 14.0258 71H14.0584C14.396 70.9935 14.658 70.8997 14.9805 70.7504C15.1889 69.9516 15.2262 69.1092 15.2273 68.282C15.2273 67.82 15.2157 67.3633 15.2157 66.922C15.2157 65.1783 15.3927 63.6744 17.1682 63.0499C17.1775 63.0466 17.1869 63.0434 17.195 63.0412C17.2055 63.0368 17.216 63.0347 17.2276 63.0303C17.2858 63.0129 17.3452 62.9987 17.4069 62.9856C17.4232 62.9834 17.4383 62.9813 17.4546 62.978C17.5757 62.9584 17.7015 62.9497 17.8307 62.9486H17.854C17.8901 62.9486 17.925 62.9486 17.9611 62.9507C18.0333 62.9518 18.1055 62.9562 18.18 62.9638C18.1917 62.9638 18.2056 62.9649 18.2173 62.966C18.4443 62.9867 18.6772 63.0238 18.9007 63.0619C18.9426 63.0684 18.9822 63.0772 19.0218 63.0837C19.0905 63.0957 19.1557 63.1066 19.2221 63.1197C19.3956 63.1502 19.5597 63.1774 19.7111 63.1959C19.8263 63.209 19.9311 63.2177 20.0289 63.2177C20.0382 63.2177 20.0476 63.2167 20.0557 63.2167C20.171 63.2156 20.2699 63.2003 20.3526 63.1676C20.3619 63.1633 20.3701 63.16 20.3794 63.1556C20.384 63.1524 20.391 63.1502 20.3969 63.148C20.8311 63.0139 20.9976 62.7034 21 62.359C21.0023 62.0636 20.8835 61.7432 20.7089 61.4893C20.2979 61.3259 19.7344 61.1798 19.1231 61.0915C18.7319 61.0338 18.3209 61 17.9192 61C17.5862 61 17.2579 61.0229 16.9517 61.0752Z" fill="#E83F3E"/>
<path fill-rule="evenodd" clip-rule="evenodd" d="M26.6845 61.0011C26.3291 61.2189 25.7327 61.1245 25.3308 61.2886C24.2202 61.7424 23.0642 62.7552 22.5283 63.784C22.1599 64.491 21.9989 65.197 22 65.8782C22.0054 68.3029 24.0733 70.3842 26.1044 70.8863C26.4252 70.9646 26.7267 70.9989 27.0108 71H27.0195H27.0497C28.3289 70.9893 29.2656 70.3069 30.0661 70.0226C30.2584 70.4614 30.4497 70.5805 30.7435 70.8863C31.5117 70.8831 31.5787 70.6867 32 70.4056V65.0318C31.8066 64.2851 31.4944 63.6113 31.073 63.0384C30.1418 61.7757 28.6768 61 26.7807 61C26.7483 61 26.7159 61 26.6845 61.0011ZM24.5209 67.8649C24.3483 67.6631 24.2128 67.441 24.1218 67.2029C24.0318 66.968 24 66.6765 24 66.3711C23.999 65.8607 24.0847 65.3107 24.1218 64.9114C24.5389 64.4939 24.7676 63.8137 25.2577 63.4773C25.6124 63.236 26.1386 63.2467 26.489 63H26.5768H26.5779H26.5959C29.7307 63.0139 31.18 66.7341 28.8562 68.4447C28.3321 68.8324 27.7149 69 27.1009 69C26.1004 69 25.1053 68.5526 24.5209 67.8649Z" fill="#E83F3E"/>
<path fill-rule="evenodd" clip-rule="evenodd" d="M148.697 61C148.182 61.3177 147.39 61.2082 146.866 61.4797C145.887 61.9873 144.795 63.1238 144.36 64.167C144.111 64.7615 144 65.3432 144 65.9023C143.999 68.3868 146.176 70.4055 148.119 70.8884C148.132 70.8916 148.145 70.8938 148.158 70.897C148.458 70.9689 148.741 70.9989 149.01 71H149.018H149.049C150.263 70.9893 151.171 70.3615 151.953 70.0674C151.994 70.0513 152.033 70.0373 152.072 70.0245C152.243 70.4108 152.445 70.575 152.651 70.8884H152.682H152.718C153.475 70.8819 153.573 70.6952 154 70.4076V65.2241C153.929 64.9161 153.842 64.6199 153.736 64.3344C153 62.349 151.414 61 148.75 61H148.697ZM147.338 68.4507C146.25 67.6551 145.684 66.1426 146.183 64.8763C146.451 64.195 147.24 63.5021 147.898 63.1887C148.091 63.0954 148.4 63.1017 148.565 63H148.672H148.688C152.611 63.0115 153.047 67.7327 150.005 68.8166C149.927 68.8449 149.842 68.869 149.757 68.8941C149.741 68.8973 149.725 68.9036 149.707 68.9078C149.57 68.9434 149.433 68.9686 149.298 68.9832C149.194 68.9958 149.089 69 148.987 69C148.369 69 147.805 68.7914 147.338 68.4507Z" fill="#E83F3E"/>
<path fill-rule="evenodd" clip-rule="evenodd" d="M90.7488 61H90.6676C90.1257 61.1281 89.5838 61.2573 89.0419 61.3844C87.7433 61.9388 86.5911 63.3116 86.1732 64.7565C86.0556 65.1677 86.0011 65.5704 86 65.9623C85.9989 68.359 88.018 70.3228 89.6159 70.8234C89.6404 70.831 89.665 70.8385 89.6907 70.846C90.0562 70.9505 90.4709 70.9989 90.892 71H90.9081C90.9348 71 90.9637 71 90.9925 70.9989C92.1191 70.9828 93.2884 70.6382 93.7576 70.1311C93.7683 70.1182 93.7822 70.1042 93.7929 70.0902C93.8025 70.0784 93.8132 70.0655 93.8228 70.0536C93.8324 70.059 93.842 70.0665 93.8527 70.073C93.8805 70.0913 93.9083 70.115 93.9361 70.1398C93.951 70.1537 93.966 70.1677 93.982 70.1839C93.9842 70.186 93.9885 70.1893 93.9906 70.1925C94.0088 70.2108 94.028 70.2313 94.0472 70.2528C94.3112 70.537 94.5817 70.9634 94.9825 70.9677H94.9889H95.0038C95.1417 70.9634 95.2978 70.9085 95.4741 70.7814C95.4891 70.7696 95.5051 70.7578 95.5201 70.7459C95.5286 70.7394 95.5361 70.7341 95.5436 70.7265C95.9124 70.4595 96 69.6832 96 68.837C96 68.0661 95.9263 67.2371 95.9263 66.6815C95.9252 63.2115 94.1445 61 90.751 61H90.7488ZM90.6535 63H90.6939H90.7098C94.7582 63.0126 95.0672 68.0529 91.6558 68.9194C89.4973 69.4677 87.4323 67.1119 88.1426 65.067C88.3889 64.357 89.1777 63.4831 89.8519 63.1891C90.1036 63.0788 90.4093 63.126 90.6121 63H90.6535Z" fill="#E83F3E"/>
<path fill-rule="evenodd" clip-rule="evenodd" d="M72.3976 61.2959C70.7286 61.9913 69.5611 63.401 69.103 65.3451C69.0347 65.6409 69.0011 65.9334 69.0001 66.2183C68.9903 68.6403 71.2518 70.6163 72.7865 71.0722C72.806 71.0789 72.8287 71.0855 72.8482 71.0899C72.8525 71.091 72.8558 71.091 72.8569 71.0921C73.2034 71.1859 73.5879 71.2301 73.9789 71.2323H73.9919C74.006 71.2323 74.0212 71.2323 74.0352 71.2312C75.1941 71.2235 76.4028 70.8404 76.8826 70.2741C76.8891 70.2664 76.8956 70.2586 76.9021 70.2509C76.9119 70.2399 76.9195 70.2288 76.9281 70.2167C76.9324 70.2123 76.9379 70.2056 76.9411 70.1979C76.9454 70.1935 76.9476 70.188 76.9519 70.1836H77.0494V71.3681C76.8122 71.6198 76.7093 72.0117 76.4678 72.2578C76.4591 72.2667 76.4494 72.2766 76.4397 72.2854C76.418 72.3075 76.3952 72.3296 76.3703 72.3495C75.8191 72.8407 74.9147 73.1134 74.0179 73.1189H73.9952H73.9616C73.2966 73.1134 72.6403 72.961 72.1355 72.6387C72.1139 72.6255 72.0944 72.6111 72.0727 72.5979C72.0521 72.5846 72.0316 72.568 72.011 72.5537C71.3698 72.0845 71.242 70.9773 70.3636 70.7764C70.3539 70.7698 70.3441 70.7664 70.3333 70.762C70.3171 70.7543 70.2997 70.7477 70.2824 70.7422C70.2293 70.7245 70.1774 70.7146 70.1275 70.7146C70.1232 70.7135 70.1178 70.7135 70.1124 70.7135C70.1059 70.7135 70.1005 70.7135 70.095 70.7146C69.7658 70.7256 69.5004 71.0623 69.3012 71.3339C69.2654 71.3802 69.2329 71.4255 69.2015 71.4663C69.2676 72.461 69.8427 72.9147 70.3636 73.4413C70.3951 73.4744 70.4265 73.5042 70.4579 73.5362C70.4633 73.5406 70.4698 73.5461 70.4741 73.5516C70.4958 73.5726 70.5174 73.5925 70.538 73.6135C71.5518 74.5595 72.7507 74.9956 73.9627 75H73.9822H74.0147C75.2949 74.9923 76.5837 74.5065 77.6819 73.6389C77.7339 73.5991 77.7848 73.5572 77.8357 73.5152C77.8639 73.4909 77.892 73.4666 77.9202 73.4413C78.8831 72.6122 79.0011 71.1208 79 69.3987C79 68.8246 78.987 68.2252 78.987 67.6158V65.1475C78.7812 64.3162 78.3686 63.4949 77.9202 62.8767C77.3483 62.0874 76.1451 61.3941 75.1107 61.0994C75.1042 61.0971 75.0977 61.0949 75.0923 61.0938C75.0642 61.085 75.0382 61.0795 75.0122 61.0729C74.854 61.0375 74.7176 61.0254 74.5941 61.0243H74.5789H74.5649C74.54 61.0243 74.5161 61.0254 74.4934 61.0265C74.4468 61.0287 74.4024 61.0298 74.3591 61.032C74.2887 61.0364 74.2226 61.0397 74.1555 61.0397H74.1371C74.0417 61.0397 73.9497 61.0287 73.8511 61C73.4731 61.2329 72.8157 61.1214 72.3976 61.2959ZM71.2597 67.0855C70.9724 66.4368 70.9019 65.6977 71.1582 64.9965C71.1625 64.9891 71.1646 64.9839 71.1668 64.9755C71.4263 64.2868 72.206 63.4742 72.8863 63.1892C73.1427 63.081 73.4471 63.1251 73.6511 63H73.7055H73.7301C77.699 63.0189 78.0365 67.8214 74.843 68.856C74.8035 68.8696 74.7629 68.8822 74.7213 68.8938C74.6839 68.9043 74.6444 68.9148 74.607 68.9254C74.4425 68.9664 74.278 68.9895 74.1157 68.9968C74.0762 68.9989 74.0377 69 73.9982 69C72.8233 69 71.7392 68.1673 71.2597 67.0855Z" fill="#E83F3E"/>
<path fill-rule="evenodd" clip-rule="evenodd" d="M57.135 61.4858C57.0277 62.3662 57 63.3389 57 64.3355C57 65.4658 57.0365 66.6266 57.0365 67.7091C57.0365 67.9253 57.0343 68.1405 57.0343 68.3514C57.0343 69.3687 57.0642 70.2957 57.4314 70.9163C57.5542 70.9424 57.6814 70.9674 57.8075 70.9826C57.8706 70.9891 57.9336 70.9946 57.9945 70.9957H58.031H58.073C58.2765 70.9902 58.4668 70.9424 58.6184 70.8185C58.9768 70.5598 59.0741 69.9414 59.0741 69.1958C59.0741 68.3014 58.9347 67.2254 58.9347 66.3625C58.9347 66.0255 58.9558 65.7212 59.0144 65.4723C59.271 64.4018 60.0597 63.3237 61.0929 63.0422C61.2743 62.9922 61.469 62.9704 61.6648 62.9683H61.6847H61.7146C62.2655 62.9748 62.823 63.1367 63.1504 63.278C63.1947 63.2965 63.2345 63.315 63.2688 63.3334C64.1504 63.7812 64.6903 64.4311 64.9524 65.4723V70.4305C64.9546 70.4359 64.9558 70.4403 64.958 70.4457C65.0852 70.7642 65.4779 70.9783 65.8783 70.9989C65.8993 71 65.9192 71 65.9403 71H65.9801C66.1781 70.9924 66.3739 70.9359 66.5365 70.8185C66.9082 70.5566 66.9989 69.2208 67 67.9025C67 66.9428 66.9513 65.9908 66.9314 65.4723C66.8485 63.3715 65.1482 61.7467 63.4679 61.1956C63.3916 61.1695 63.3153 61.15 63.2389 61.1348C63.0398 61.0935 62.8363 61.0804 62.6338 61.0783C62.615 61.0783 62.5962 61.0772 62.5774 61.0772C62.5686 61.0772 62.5586 61.0783 62.5498 61.0783C62.4856 61.0783 62.4215 61.0793 62.3573 61.0815C62.2854 61.0826 62.2135 61.0859 62.1416 61.0891C62.0631 61.0924 61.9845 61.0946 61.9071 61.0978C61.865 61.0989 61.823 61.1 61.7832 61.1H61.7323H61.6958C61.6604 61.1 61.6239 61.1 61.5885 61.0978C61.5675 61.0967 61.5465 61.0967 61.5265 61.0956H61.4834H61.4768C61.4292 61.0956 61.3805 61.0967 61.3319 61.0989C60.6803 61.1261 59.8938 61.3402 59.3993 61.7119C59.3827 61.7238 59.3662 61.7391 59.3496 61.751C59.3274 61.7695 59.3042 61.7869 59.2843 61.8075C59.2588 61.8293 59.2356 61.851 59.2135 61.8749C58.656 61.5847 58.6881 61.1043 57.8274 61C57.6294 61.1706 57.3507 61.3532 57.135 61.4858Z" fill="#E83F3E"/>
<path fill-rule="evenodd" clip-rule="evenodd" d="M52.6355 61C52.5281 61.1153 52.3956 61.2077 52.2588 61.2914C52.0547 62.1254 52 63.167 52 64.2554C52 65.4895 52.0705 66.7834 52.0705 67.9044C52.0705 68.0577 52.0694 68.2089 52.0694 68.3557C52.0694 69.3886 52.0915 70.2943 52.4471 70.9206C52.5629 70.9467 52.6839 70.9717 52.8048 70.987C52.8627 70.9935 52.9227 70.9989 52.9816 71H53.0174H53.0563C53.2488 70.9946 53.4319 70.9467 53.576 70.8228C53.9095 70.5749 53.9632 70.1215 53.9632 69.5832C53.9632 69.331 53.9516 69.0591 53.9516 68.7808V63.7237C53.9516 63.3943 54 62.8963 54 62.4483C54 62.0895 53.9695 61.7622 53.858 61.5839C53.7885 61.3577 53.7612 61.3664 53.6696 61.1957C53.3256 61.1 53.1478 61 52.6607 61H52.6355Z" fill="#E83F3E"/>
<path fill-rule="evenodd" clip-rule="evenodd" d="M35.5327 61C35.385 61.2303 35.2521 61.2825 35.1561 61.5834C35.0348 61.7812 35 62.1343 35 62.5276C35 63.0491 35.0601 63.6369 35.0601 64.0128V70.4274C35.0665 70.4339 35.0717 70.4383 35.077 70.4448C35.0833 70.4502 35.0897 70.4557 35.0939 70.4622C35.1055 70.4731 35.116 70.4839 35.1266 70.4937C35.4388 70.8044 35.6392 70.9815 35.904 70.9978C35.9167 70.9989 35.9314 71 35.9462 71C35.9662 71 35.9852 70.9989 36.0042 70.9967C36.0243 70.9957 36.0443 70.9924 36.0654 70.9902C36.0749 70.988 36.0823 70.988 36.0907 70.9859C36.1846 70.9696 36.289 70.9359 36.4082 70.8859C36.4937 70.8501 36.5876 70.8055 36.692 70.7534H36.693C36.7141 70.7425 36.7363 70.7306 36.7595 70.7186C36.9515 69.8559 37 68.7934 37 67.6851C37 66.5432 36.9473 65.3579 36.9473 64.304C36.9473 64.0183 36.9515 63.7292 36.9515 63.4413C36.9504 62.5787 36.9177 61.7464 36.6646 61.1956C36.3112 61.0978 36.0854 61 35.5844 61H35.5327Z" fill="#E83F3E"/>
<path fill-rule="evenodd" clip-rule="evenodd" d="M178.788 61.0077C178.494 61.1961 178.115 61.1556 177.747 61.3002C176.986 61.6014 175.008 63.0289 175 64.303C174.998 64.5528 175.072 64.7982 175.246 65.025C175.655 67.2347 179.903 66.5248 181.603 67.5732H181.81C181.697 68.1407 181.228 68.4058 180.769 68.6501C180.327 68.8878 179.903 68.9897 179.504 68.9919C179.498 68.9919 179.492 68.993 179.484 68.993C179.471 68.993 179.456 68.9919 179.441 68.9919C178.35 68.9722 177.431 68.2283 176.744 67.537C176.7 67.491 176.655 67.4472 176.612 67.4023C176.591 67.3793 176.57 67.3574 176.549 67.3355C176.542 67.3278 176.535 67.3201 176.527 67.3135C176.518 67.3026 176.507 67.2905 176.497 67.2796C175.86 67.3037 175.634 67.4571 175.246 67.6718C175.211 67.9982 175.177 68.3236 175.142 68.6501C175.65 69.1277 176.017 69.8234 176.599 70.22C177.283 70.6823 178.445 70.989 179.585 70.9989C179.604 70.9989 179.621 71 179.64 71C179.646 71 179.651 70.9989 179.658 70.9989C180.446 70.9978 181.219 70.8499 181.81 70.5125C182.347 70.2068 183.116 69.6185 183.478 69.1398C183.703 68.8451 183.751 68.4277 183.999 68.1615C183.999 68.1374 184 68.1166 184 68.0936C184.005 65.2824 181.031 65.3624 178.788 64.7314C178.28 64.5868 177.698 64.6832 177.331 64.4378H177.226H177.225C177.404 63.8977 177.788 63.6216 178.268 63.3587C178.313 63.3368 178.356 63.3127 178.399 63.2918C178.801 63.0936 179.186 63.0103 179.554 63.0081H179.565H179.625C180.732 63.0355 181.669 63.8078 182.385 64.4838C182.392 64.4904 182.399 64.4958 182.405 64.5024C182.438 64.532 182.468 64.5616 182.498 64.5901C182.498 64.5911 182.5 64.5922 182.501 64.5922C182.512 64.6043 182.524 64.6152 182.536 64.6262C182.536 64.6273 182.537 64.6273 182.537 64.6284C182.549 64.6404 182.561 64.6514 182.572 64.6624C182.597 64.6843 182.621 64.7095 182.645 64.7314C182.999 64.7106 183.176 64.6832 183.373 64.5342C183.801 64.3918 183.953 64.1409 183.953 63.855C183.953 63.3795 183.533 62.8065 183.27 62.4768C183.24 62.4406 183.21 62.4045 183.18 62.3705C183.178 62.3683 183.176 62.3661 183.174 62.3639C183.165 62.353 183.154 62.3409 183.145 62.3311C183.136 62.3201 183.124 62.3092 183.115 62.2982C183.105 62.2883 183.095 62.2774 183.086 62.2675C183.075 62.2577 183.066 62.2478 183.056 62.239C182.241 61.4207 180.883 61 179.194 61C179.061 61 178.925 61.0022 178.788 61.0077Z" fill="#E83F3E"/>
<path fill-rule="evenodd" clip-rule="evenodd" d="M111.421 61.0011C111.384 61.0022 111.347 61.0033 111.309 61.0044C111.043 61.1947 110.697 61.1518 110.363 61.2981C108.965 61.9151 107.994 63.0403 108 64.9034C108 64.9485 108.001 64.9936 108.001 65.0376C108.312 65.3907 108.463 65.9549 108.853 66.2178C109.443 66.6192 113.028 67.476 113.955 67.4969L114.05 67.5959C113.947 68.1656 113.521 68.4318 113.104 68.6771C113.083 68.6892 113.062 68.7024 113.042 68.7134C113.028 68.7211 113.015 68.7288 113.002 68.7354C112.986 68.7442 112.97 68.753 112.954 68.7607C112.613 68.9366 112.283 69.0147 111.967 69.0169H111.95C111.932 69.0169 111.914 69.0158 111.896 69.0158C110.863 68.9872 109.991 68.1711 109.36 67.4518C109.315 67.4001 109.272 67.3495 109.231 67.3011C108.728 67.3231 108.523 67.4353 108.19 67.5959C108.137 67.7191 108.076 67.8918 108.001 67.9886C108.007 68.9718 108.392 69.183 108.853 69.6626C109.708 70.5524 110.898 70.9923 112.068 71H112.095H112.113C113.64 70.9934 115.124 70.2521 115.783 68.8212C115.8 68.786 115.815 68.7508 115.83 68.7134C115.836 68.7013 115.84 68.6892 115.845 68.6771C115.954 68.412 116 68.137 116 67.8698C116 67.5651 115.941 67.2714 115.845 67.0064C115.244 65.3335 112.968 65.2642 111.309 64.7429C110.847 64.5977 110.334 64.6835 109.986 64.4481H109.891C110.068 63.8465 110.613 63.324 111.215 63.1678C111.226 63.1612 111.238 63.1524 111.248 63.1447C111.256 63.1392 111.265 63.1337 111.272 63.1282C111.282 63.1216 111.29 63.1172 111.301 63.1117C111.525 62.9732 111.758 62.9127 111.994 62.9105C111.998 62.9105 112.003 62.9094 112.006 62.9094C112.034 62.9094 112.06 62.9105 112.087 62.9127C113.15 62.9688 114.25 64.1489 114.736 64.6692C114.741 64.6736 114.745 64.678 114.749 64.6824C114.769 64.7044 114.788 64.7242 114.806 64.7429C115.456 64.6978 115.602 64.4855 115.94 64.1511C115.978 61.9734 113.77 61 111.533 61C111.496 61 111.458 61.0011 111.421 61.0011Z" fill="#E83F3E"/>
<path fill-rule="evenodd" clip-rule="evenodd" d="M122.215 61.0022C121.86 61.2328 121.365 61.2122 120.963 61.3887C119.845 61.8771 118.696 63.1191 118.265 64.2951C118.26 64.307 118.257 64.3189 118.251 64.3308C118.217 64.4261 118.188 64.5225 118.161 64.6188C117.334 67.5847 119.817 70.9578 122.823 71H122.878C123.177 71 123.481 70.9675 123.787 70.896C123.808 70.8917 123.83 70.8863 123.853 70.882C125.841 70.3936 127.997 68.4997 128 65.9832C128 65.3877 127.882 64.7564 127.61 64.1002C127.253 63.2393 126.732 62.53 126.021 62.007C125.133 61.3595 123.947 61 122.41 61C122.344 61 122.28 61.0011 122.215 61.0022ZM120.428 67.5298C120.012 66.8488 119.863 65.9941 120.145 65.1126C120.602 63.681 121.366 63.7153 122.425 63.0032C122.455 63.0021 122.485 63.0011 122.515 63.0011C122.538 63.0011 122.564 63 122.587 63H122.591C122.605 63 122.617 63 122.63 63.0011C124.184 63.0107 125.237 63.6231 125.724 64.6654C125.734 64.6858 125.745 64.7083 125.754 64.7298C125.925 65.118 126 65.5105 126 65.8869C126.001 67.3003 124.952 68.5346 123.948 68.8542C123.636 68.9539 123.326 69 123.024 69C121.942 69 120.964 68.407 120.428 67.5298Z" fill="#E83F3E"/>
<path fill-rule="evenodd" clip-rule="evenodd" d="M101.511 61C101.476 61.0011 101.442 61.0011 101.406 61.0022C100.909 61.1955 100.409 61.3899 99.9126 61.5854C99.2897 61.9851 98.0031 63.1549 98 64.329C97.999 64.6494 98.0939 64.9709 98.3266 65.2772C98.9328 67.1182 102.466 66.5143 103.926 67.5114H104.113C104.011 68.074 103.592 68.3368 103.18 68.579C102.783 68.8147 102.404 68.9157 102.046 68.9179C102.041 68.9179 102.034 68.919 102.029 68.919C102.008 68.919 101.986 68.9179 101.964 68.9168C100.999 68.8853 100.184 68.1565 99.5745 67.4755C99.562 67.4603 99.5495 67.4462 99.5359 67.4321C99.5276 67.4223 99.5192 67.4125 99.5109 67.4027C99.5088 67.4017 99.5078 67.3984 99.5057 67.3962C99.4692 67.356 99.4337 67.3158 99.4003 67.2757C99.3993 67.2746 99.3982 67.2735 99.3972 67.2713L99.3533 67.2203C98.4789 67.2203 98.1357 67.5179 98.1357 68.4183C98.1357 68.4704 98.1367 68.5225 98.1388 68.579C98.9224 69.4425 99.5213 70.4135 100.753 70.8143C100.769 70.8208 100.788 70.8262 100.807 70.8306C101.181 70.9468 101.556 70.9989 101.923 71H101.933H101.996C103.741 70.9707 105.311 69.7911 105.837 68.6865C105.849 68.6637 105.859 68.6431 105.87 68.6181C105.875 68.6062 105.88 68.592 105.885 68.579C105.977 68.3596 106 68.0501 106 67.7242C106 67.4549 105.984 67.1746 105.979 66.9292C105.62 66.5295 105.441 65.9267 104.952 65.666C104.173 65.2468 102.297 64.9535 101.406 64.6939C100.917 64.5506 100.455 64.6483 100.099 64.4028H100.007C100.275 63.509 101.2 62.9898 102.162 62.9822H102.184H102.198C102.65 62.9833 103.11 63.0995 103.51 63.3417C103.522 63.3493 103.531 63.3547 103.542 63.3623C103.567 63.3765 103.592 63.3927 103.615 63.408C103.625 63.4156 103.636 63.4242 103.646 63.4308C103.838 63.5654 103.875 63.8163 104.02 64.014C104.235 64.3062 104.598 64.4463 104.86 64.6939C105.37 64.6548 105.563 64.5006 105.885 64.3051C105.918 63.9814 105.949 63.6578 105.979 63.333C105.578 62.9138 105.251 62.526 104.91 62.1915C104.174 61.4714 103.37 61 101.608 61H101.511Z" fill="#E83F3E"/>
<path fill-rule="evenodd" clip-rule="evenodd" d="M169.011 61C167.759 61 166.495 61.425 165.524 62.3481C165.253 62.6064 165.005 62.905 164.785 63.2417C164.233 64.095 163.998 64.9658 164 65.8038C164.01 68.2657 166.068 70.4311 168.157 70.9433C168.173 70.9477 168.189 70.951 168.207 70.9542C168.356 70.9869 168.515 70.9989 168.675 71H168.692H168.719C169.23 70.9967 169.759 70.866 170.095 70.7722C170.102 70.7701 170.109 70.769 170.116 70.7668C170.139 70.7602 170.161 70.7548 170.181 70.7472C171.148 70.4747 171.997 70.26 171.996 69.5658C171.995 69.3163 171.884 69.0035 171.627 68.6024C171.611 68.6003 171.597 68.597 171.583 68.5948C171.442 68.5719 171.31 68.561 171.187 68.561H171.173H171.158C170.686 68.5632 170.32 68.7103 169.916 68.8466C169.898 68.852 169.88 68.8585 169.861 68.864C169.719 68.9109 169.57 68.9555 169.41 68.9937C169.233 69.0329 169.065 69.0514 168.905 69.0525H168.894H168.866C167.75 69.0384 167.02 68.148 166.466 67.5737C166.428 67.5355 166.392 67.4963 166.354 67.4603C166.346 67.4516 166.337 67.4429 166.327 67.4331V67.141C166.797 67.1443 167.415 67.1704 168.103 67.1988C168.897 67.2304 169.781 67.2653 170.622 67.2663H170.652H170.678C171.95 67.2653 173.12 67.1857 173.731 66.9056C173.771 66.8871 173.808 66.8675 173.844 66.849C174.264 65.0759 173.801 63.6362 172.881 62.6282C172.129 61.8043 171.074 61.2703 169.946 61.0785C169.937 61.0774 169.928 61.0752 169.919 61.0741C169.917 61.073 169.917 61.073 169.915 61.073C169.617 61.0251 169.315 61 169.012 61H169.011ZM169.05 63C171.064 63.327 170.917 63.8477 172 64.8333V65H166C166.263 64.1327 167.171 63.326 168.165 63.0838C168.172 63.082 168.177 63.081 168.185 63.0792C168.219 63.0717 168.253 63.0652 168.286 63.0624C168.347 63.054 168.409 63.0522 168.47 63.0522H168.49C168.531 63.0522 168.572 63.0531 168.61 63.0531C168.648 63.054 168.684 63.054 168.719 63.054C168.843 63.054 168.958 63.0466 169.05 63Z" fill="#E83F3E"/>
</svg>
