<svg width="30" height="25" viewBox="0 0 30 25" fill="none" xmlns="http://www.w3.org/2000/svg">
<path d="M30 8.17187C29.4978 8.72433 28.9286 9.20982 28.3259 9.62835C25.5301 11.5201 22.7176 13.4286 19.9888 15.404C18.5826 16.442 16.8415 17.7143 15.0167 17.7143H15H14.9833C13.1585 17.7143 11.4174 16.442 10.0112 15.404C7.28237 13.4118 4.46987 11.5201 1.69085 9.62835C1.07143 9.20982 0.502232 8.72433 0 8.17187V21.4643C0 22.9375 1.20536 24.1429 2.67857 24.1429H27.3214C28.7946 24.1429 30 22.9375 30 21.4643V8.17187ZM30 3.25C30 1.77678 28.7779 0.571428 27.3214 0.571428H2.67857C0.887277 0.571428 0 1.97768 0 3.6183C0 5.14174 1.69085 7.03348 2.87946 7.83705C5.47433 9.64509 8.10268 11.4531 10.6975 13.2779C11.7857 14.0312 13.6272 15.5714 14.9833 15.5714H15H15.0167C16.3728 15.5714 18.2143 14.0312 19.3025 13.2779C21.8973 11.4531 24.5257 9.64509 27.1373 7.83705C28.6105 6.81585 30 5.125 30 3.25Z" fill="white"/>
</svg>
