<svg width="18" height="16" viewBox="0 0 18 16" fill="none" xmlns="http://www.w3.org/2000/svg">
<path d="M16.5469 6.5C16.9531 6.5 17.2969 6.65625 17.5781 6.96875C17.8594 7.25 18 7.59375 18 8C18 8.40625 17.8594 8.76562 17.5781 9.07812C17.2969 9.35938 16.9531 9.5 16.5469 9.5H1.45312C1.04688 9.5 0.703125 9.35938 0.421875 9.07812C0.140625 8.76562 0 8.40625 0 8C0 7.59375 0.140625 7.25 0.421875 6.96875C0.703125 6.65625 1.04688 6.5 1.45312 6.5H16.5469ZM16.5469 0.5C16.9531 0.5 17.2969 0.65625 17.5781 0.96875C17.8594 1.25 18 1.59375 18 2C18 2.40625 17.8594 2.76562 17.5781 3.07812C17.2969 3.35938 16.9531 3.5 16.5469 3.5H1.45312C1.04688 3.5 0.703125 3.35938 0.421875 3.07812C0.140625 2.76562 0 2.40625 0 2C0 1.59375 0.140625 1.25 0.421875 0.96875C0.703125 0.65625 1.04688 0.5 1.45312 0.5H16.5469ZM16.5469 12.5C16.9531 12.5 17.2969 12.6562 17.5781 12.9688C17.8594 13.25 18 13.5938 18 14C18 14.4062 17.8594 14.7656 17.5781 15.0781C17.2969 15.3594 16.9531 15.5 16.5469 15.5H1.45312C1.04688 15.5 0.703125 15.3594 0.421875 15.0781C0.140625 14.7656 0 14.4062 0 14C0 13.5938 0.140625 13.25 0.421875 12.9688C0.703125 12.6562 1.04688 12.5 1.45312 12.5H16.5469Z" fill="white"/>
</svg>
