<svg width="24" height="24" viewBox="0 0 24 24" fill="none" xmlns="http://www.w3.org/2000/svg">
<path d="M23.5714 19.0446C23.5714 18.9275 23.5714 18.8103 23.5212 18.6931C23.404 18.3415 22.5837 17.9732 22.2489 17.8058C21.2946 17.2701 20.3237 16.7511 19.3862 16.1987C18.9509 15.9308 18.4152 15.4286 17.8962 15.4286C16.875 15.4286 15.385 18.4587 14.481 18.4587C14.029 18.4587 13.4431 18.0402 13.0413 17.8058C9.99442 16.115 7.88505 14.0056 6.1942 10.9587C5.95982 10.5569 5.54129 9.97098 5.54129 9.51897C5.54129 8.61495 8.57143 7.125 8.57143 6.10379C8.57143 5.58482 8.0692 5.04911 7.80134 4.61384C7.24888 3.67634 6.72991 2.70536 6.1942 1.75112C6.02679 1.41629 5.65848 0.595981 5.30692 0.478794C5.18973 0.42857 5.07254 0.42857 4.95536 0.42857C4.35268 0.42857 3.1808 0.696428 2.62835 0.947544C1.80804 1.29911 1.27232 2.23661 0.853795 2.98995C0.31808 3.97768 0 4.98214 0 6.10379C0 7.66071 0.636161 9.06696 1.15513 10.49C1.52344 11.5112 1.97545 12.4989 2.54464 13.4196C4.30246 16.2656 7.73438 19.6975 10.5804 21.4554C11.5011 22.0246 12.4888 22.4766 13.51 22.8449C14.933 23.3638 16.3393 24 17.8962 24C19.0179 24 20.0223 23.6819 21.01 23.1462C21.7634 22.7277 22.7009 22.192 23.0525 21.3717C23.3036 20.8192 23.5714 19.6473 23.5714 19.0446Z" fill="white"/>
</svg>
