<svg width="8" height="12" viewBox="0 0 8 12" fill="none" xmlns="http://www.w3.org/2000/svg">
<path fill-rule="evenodd" clip-rule="evenodd" d="M4.41237 11.4952L4 12L3.58763 11.4952C3.2394 11.0625 2.90951 10.6202 2.59794 10.1683C2.14891 9.52404 1.75029 8.90385 1.40206 8.30769C0.980527 7.55769 0.65063 6.86058 0.412371 6.21635C0.137457 5.45673 0 4.78365 0 4.19712C0 3.42788 0.178694 2.72115 0.536082 2.07692C0.893471 1.44231 1.37457 0.9375 1.97938 0.5625C2.59336 0.1875 3.2669 0 4 0C4.7331 0 5.40664 0.1875 6.02062 0.5625C6.62543 0.9375 7.10653 1.44231 7.46392 2.07692C7.82131 2.72115 8 3.42788 8 4.19712C8 4.78365 7.86254 5.45673 7.58763 6.21635C7.34937 6.86058 7.01947 7.55769 6.59794 8.30769C6.24971 8.90385 5.85109 9.52404 5.40206 10.1683C5.09049 10.6202 4.7606 11.0625 4.41237 11.4952ZM2.86377 5.13623C3.17295 5.44541 3.54911 5.6 3.99227 5.6C4.28084 5.6 4.54879 5.52786 4.79614 5.38357C5.04348 5.23929 5.23929 5.04605 5.38357 4.80386C5.52786 4.56167 5.6 4.2963 5.6 4.00773C5.6 3.71916 5.52786 3.45121 5.38357 3.20386C5.23929 2.95652 5.04348 2.76071 4.79614 2.61643C4.54879 2.47214 4.28084 2.4 3.99227 2.4C3.7037 2.4 3.43833 2.47214 3.19614 2.61643C2.95395 2.76071 2.76071 2.95652 2.61643 3.20386C2.47214 3.45121 2.4 3.71916 2.4 4.00773C2.4 4.45089 2.55459 4.82705 2.86377 5.13623Z" fill="white"/>
</svg>
