<svg width="18" height="18" viewBox="0 0 18 18" fill="none" xmlns="http://www.w3.org/2000/svg">
<path d="M13.5714 9.57143C13.5714 9.96205 13.2478 10.2857 12.8571 10.2857H10V13.1429C10 13.5335 9.67634 13.8571 9.28571 13.8571H7.85714C7.46652 13.8571 7.14286 13.5335 7.14286 13.1429V10.2857H4.28571C3.89509 10.2857 3.57143 9.96205 3.57143 9.57143V8.14286C3.57143 7.75223 3.89509 7.42857 4.28571 7.42857H7.14286V4.57143C7.14286 4.1808 7.46652 3.85714 7.85714 3.85714H9.28571C9.67634 3.85714 10 4.1808 10 4.57143V7.42857H12.8571C13.2478 7.42857 13.5714 7.75223 13.5714 8.14286V9.57143ZM17.1429 8.85714C17.1429 4.125 13.3036 0.285713 8.57143 0.285713C3.83929 0.285713 0 4.125 0 8.85714C0 13.5893 3.83929 17.4286 8.57143 17.4286C13.3036 17.4286 17.1429 13.5893 17.1429 8.85714Z" fill="white"/>
</svg>
