<svg width="31" height="27" viewBox="0 0 31 27" fill="none" xmlns="http://www.w3.org/2000/svg">
<path fill-rule="evenodd" clip-rule="evenodd" d="M26.1033 2.15059C24.9462 0.827016 23.2924 0 21.4615 0C17.9521 0 15.1039 3.052 15.1039 6.81596C15.1039 7.35058 15.1586 7.86876 15.2678 8.36792C9.98211 8.0833 5.29648 5.37301 2.15782 1.24398C1.60988 2.2544 1.29701 3.42658 1.29701 4.67489C1.29701 7.03829 2.41938 9.12486 4.12693 10.3472C3.08568 10.3143 2.1032 10.0046 1.24404 9.49771V9.58076C1.24404 12.8845 3.43663 15.6406 6.34849 16.2644C5.81545 16.4244 5.25261 16.5049 4.67239 16.5049C4.26268 16.5049 3.8629 16.4633 3.47553 16.3837C4.28502 19.0906 6.63239 21.0621 9.41596 21.1149C7.23993 22.9436 4.49609 24.0336 1.51718 24.0336C1.004 24.0336 0.496622 24.0025 0 23.9402C2.81419 25.8711 6.15895 27 9.74953 27C21.4491 27 27.8448 16.6156 27.8448 7.60751C27.8448 7.31079 27.8398 7.01493 27.8291 6.72426C29.0714 5.76316 30.1508 4.5633 31 3.19647C29.8611 3.73801 28.6344 4.1048 27.3482 4.26917C28.6617 3.42658 29.6699 2.0909 30.145 0.499151C28.915 1.27945 27.5559 1.84695 26.1033 2.15059Z" fill="white"/>
</svg>
